<svg xmlns="http://www.w3.org/2000/svg" viewBox="0 0 1200 480"><defs><style>.bg{fill:#0b1220}.t{font:700 28px Arial;fill:#e2e8f0}.s{font:400 16px Arial;fill:#cbd5e1}.bx{fill:#111827;stroke:#60a5fa;stroke-width:3;rx:18}.ok{fill:#052e16;stroke:#34d399;stroke-width:3;rx:18}.res{fill:#3b2f05;stroke:#facc15;stroke-width:3;rx:18}.fail{fill:#3f1d2e;stroke:#f472b6;stroke-width:3;rx:18}.h{font:700 22px Arial;fill:#fff}.p{font:400 16px Arial;fill:#d1d5db}.line{stroke:#94a3b8;stroke-width:4;marker-end:url(#a)}.label{font:700 15px Arial;fill:#facc15}</style><marker id="a" markerWidth="10" markerHeight="10" refX="8" refY="3" orient="auto"><path d="M0,0 L0,6 L9,3 z" fill="#94a3b8"/></marker></defs><rect class="bg" width="1200" height="480"/>
<text x="40" y="45" class="t">Redundância operacional N+1</text><text x="40" y="72" class="s">Manter capacidade mínima mesmo com perda de um equipamento dentro do critério de projeto</text>
<rect x="85" y="145" width="220" height="130" class="ok" rx="18"/><text x="195" y="185" text-anchor="middle" class="h">Bomba 1</text><text x="195" y="215" text-anchor="middle" class="p">Operante</text>
<rect x="345" y="145" width="220" height="130" class="ok" rx="18"/><text x="455" y="185" text-anchor="middle" class="h">Bomba 2</text><text x="455" y="215" text-anchor="middle" class="p">Operante</text>
<rect x="605" y="145" width="220" height="130" class="res" rx="18"/><text x="715" y="185" text-anchor="middle" class="h">Bomba 3</text><text x="715" y="215" text-anchor="middle" class="p">Reserva N+1</text>
<rect x="895" y="145" width="220" height="130" class="bx" rx="18"/><text x="1005" y="185" text-anchor="middle" class="h">Carga atendida</text><text x="1005" y="215" text-anchor="middle" class="p">2 bombas necessárias</text>
<line x1="305" y1="210" x2="342" y2="210" class="line"/><line x1="565" y1="210" x2="602" y2="210" class="line"/><line x1="825" y1="210" x2="892" y2="210" class="line"/>
<rect x="345" y="325" width="220" height="95" class="fail" rx="18"/><text x="455" y="365" text-anchor="middle" class="h">Falha da Bomba 2</text><text x="455" y="391" text-anchor="middle" class="p">Automação detecta e chama reserva</text>
<path d="M715 275 V322" class="line" fill="none"/><path d="M715 322 H565" class="line" fill="none"/>
<text x="735" y="306" class="label">lead/lag + permissivos</text>
</svg>